<?xml version="1.0" encoding="utf-8"?>
<!-- Generator: Adobe Illustrator 15.0.0, SVG Export Plug-In . SVG Version: 6.00 Build 0)  -->
<!DOCTYPE svg PUBLIC "-//W3C//DTD SVG 1.1//EN" "http://www.w3.org/Graphics/SVG/1.1/DTD/svg11.dtd">
<svg version="1.1" id="Layer_1" xmlns="http://www.w3.org/2000/svg" xmlns:xlink="http://www.w3.org/1999/xlink" x="0px" y="0px"
	 width="40px" height="40px" viewBox="0 0 40 40" enable-background="new 0 0 40 40" xml:space="preserve">
<g>
	<defs>
		<rect id="SVGID_1_" width="40" height="40"/>
	</defs>
	<clipPath id="SVGID_2_">
		<use xlink:href="#SVGID_1_"  overflow="visible"/>
	</clipPath>
	<path clip-path="url(#SVGID_2_)" fill="#DADADA" d="M40,20c0,11.046-8.954,20-20,20S0,31.046,0,20S8.954,0,20,0S40,8.954,40,20"/>
	<path clip-path="url(#SVGID_2_)" fill="#632A86" d="M18.037,19.334c0.46-0.231,0.808-0.488,1.045-0.768
		c0.423-0.502,0.633-1.166,0.633-1.99c0-0.801-0.21-1.487-0.628-2.061c-0.697-0.936-1.878-1.415-3.549-1.44H8.921v13.508h6.171
		c0.695,0,1.339-0.06,1.934-0.182c0.595-0.124,1.11-0.348,1.547-0.679c0.388-0.288,0.711-0.642,0.969-1.063
		c0.408-0.635,0.611-1.353,0.611-2.153c0-0.776-0.179-1.438-0.533-1.979C19.262,19.983,18.735,19.586,18.037,19.334 M11.651,15.421
		h2.981c0.655,0,1.194,0.07,1.619,0.21c0.49,0.203,0.735,0.619,0.735,1.25c0,0.565-0.187,0.961-0.557,1.185
		c-0.372,0.223-0.855,0.335-1.448,0.335h-3.33V15.421z M16.363,24.002c-0.33,0.157-0.793,0.237-1.387,0.237h-3.325v-3.603h3.371
		c0.587,0.005,1.044,0.082,1.37,0.229c0.582,0.264,0.871,0.745,0.871,1.45C17.263,23.146,16.964,23.706,16.363,24.002"/>
	<rect x="23.08" y="13.705" clip-path="url(#SVGID_2_)" fill="#632A86" width="5.868" height="1.681"/>
	<path clip-path="url(#SVGID_2_)" fill="#632A86" d="M30.179,18.276c-0.459-0.673-1.041-1.167-1.748-1.478
		c-0.707-0.312-1.5-0.469-2.382-0.469c-1.484,0-2.689,0.464-3.62,1.385c-0.929,0.924-1.394,2.252-1.394,3.983
		c0,1.846,0.513,3.18,1.546,3.999c1.027,0.819,2.217,1.228,3.565,1.228c1.632,0,2.902-0.485,3.81-1.456
		c0.581-0.612,0.909-1.214,0.98-1.806h-2.703c-0.155,0.293-0.339,0.521-0.546,0.688c-0.376,0.306-0.868,0.458-1.468,0.458
		c-0.571,0-1.057-0.126-1.461-0.377c-0.667-0.401-1.016-1.104-1.06-2.105h7.378c0.011-0.863-0.018-1.526-0.089-1.984
		C30.865,19.559,30.597,18.87,30.179,18.276 M23.764,20.601c0.096-0.65,0.332-1.166,0.706-1.546c0.374-0.381,0.903-0.571,1.58-0.571
		c0.626,0,1.148,0.179,1.573,0.537c0.419,0.362,0.655,0.886,0.705,1.58H23.764z"/>
</g>
</svg>
