<?xml version="1.0" encoding="utf-8"?>
<!-- Generator: Adobe Illustrator 15.0.0, SVG Export Plug-In . SVG Version: 6.00 Build 0)  -->
<!DOCTYPE svg PUBLIC "-//W3C//DTD SVG 1.1//EN" "http://www.w3.org/Graphics/SVG/1.1/DTD/svg11.dtd">
<svg version="1.1" id="Layer_1" xmlns="http://www.w3.org/2000/svg" xmlns:xlink="http://www.w3.org/1999/xlink" x="0px" y="0px"
	 width="40px" height="40px" viewBox="0 0 40 40" enable-background="new 0 0 40 40" xml:space="preserve">
<g>
	<defs>
		<rect id="SVGID_1_" width="40" height="40"/>
	</defs>
	<clipPath id="SVGID_2_">
		<use xlink:href="#SVGID_1_"  overflow="visible"/>
	</clipPath>
	<path clip-path="url(#SVGID_2_)" fill="#DADADA" d="M40,20c0,11.046-8.954,20-20,20S0,31.046,0,20S8.954,0,20,0S40,8.954,40,20"/>
	<path clip-path="url(#SVGID_2_)" fill="#632A86" d="M26.667,14.825c-2.903,0-5.251,2.318-5.251,5.174
		c0,2.858,2.348,5.176,5.251,5.176c2.9,0,5.247-2.317,5.247-5.176C31.914,17.143,29.567,14.825,26.667,14.825"/>
	<path clip-path="url(#SVGID_2_)" fill="#632A86" d="M13.332,14.825c-2.899,0-5.246,2.318-5.246,5.174
		c0,2.858,2.347,5.176,5.246,5.176c2.903,0,5.251-2.317,5.251-5.176C18.583,17.143,16.234,14.825,13.332,14.825"/>
</g>
</svg>
