<?xml version="1.0" encoding="utf-8"?>
<!-- Generator: Adobe Illustrator 15.0.0, SVG Export Plug-In . SVG Version: 6.00 Build 0)  -->
<!DOCTYPE svg PUBLIC "-//W3C//DTD SVG 1.1//EN" "http://www.w3.org/Graphics/SVG/1.1/DTD/svg11.dtd">
<svg version="1.1" id="Layer_1" xmlns="http://www.w3.org/2000/svg" xmlns:xlink="http://www.w3.org/1999/xlink" x="0px" y="0px"
	 width="40px" height="40px" viewBox="0 0 40 40" enable-background="new 0 0 40 40" xml:space="preserve">
<g>
	<defs>
		<rect id="SVGID_1_" width="40" height="40"/>
	</defs>
	<clipPath id="SVGID_2_">
		<use xlink:href="#SVGID_1_"  overflow="visible"/>
	</clipPath>
	<path clip-path="url(#SVGID_2_)" fill="#DADADA" d="M40,20c0,11.046-8.954,20-20,20S0,31.046,0,20S8.954,0,20,0S40,8.954,40,20"/>
	<path clip-path="url(#SVGID_2_)" fill="#632A86" d="M20,8.5c-6.485,0-11.744,5.279-11.744,11.792c0,5.209,3.365,9.628,8.033,11.188
		c0.587,0.107,0.801-0.257,0.801-0.569c0-0.28-0.01-1.021-0.016-2.005c-3.267,0.713-3.956-1.581-3.956-1.581
		c-0.534-1.361-1.304-1.725-1.304-1.725c-1.067-0.731,0.081-0.717,0.081-0.717c1.178,0.083,1.798,1.215,1.798,1.215
		c1.048,1.803,2.749,1.282,3.419,0.98c0.106-0.762,0.41-1.282,0.745-1.577c-2.608-0.298-5.349-1.309-5.349-5.827
		c0-1.287,0.457-2.34,1.209-3.164c-0.122-0.299-0.524-1.497,0.114-3.121c0,0,0.987-0.316,3.23,1.209
		c0.937-0.262,1.941-0.392,2.94-0.397c0.998,0.005,2.003,0.135,2.941,0.397c2.242-1.525,3.226-1.209,3.226-1.209
		c0.642,1.624,0.238,2.822,0.117,3.121c0.753,0.824,1.207,1.877,1.207,3.164c0,4.529-2.746,5.527-5.362,5.818
		c0.423,0.364,0.798,1.084,0.798,2.184c0,1.576-0.015,2.849-0.015,3.234c0,0.315,0.211,0.683,0.808,0.566
		c4.662-1.562,8.024-5.979,8.024-11.186C31.744,13.779,26.486,8.5,20,8.5"/>
</g>
</svg>
