<?xml version="1.0" encoding="utf-8"?>
<!-- Generator: Adobe Illustrator 15.0.0, SVG Export Plug-In . SVG Version: 6.00 Build 0)  -->
<!DOCTYPE svg PUBLIC "-//W3C//DTD SVG 1.1//EN" "http://www.w3.org/Graphics/SVG/1.1/DTD/svg11.dtd">
<svg version="1.1" id="Layer_1" xmlns="http://www.w3.org/2000/svg" xmlns:xlink="http://www.w3.org/1999/xlink" x="0px" y="0px"
	 width="40px" height="40px" viewBox="0 0 40 40" enable-background="new 0 0 40 40" xml:space="preserve">
<g>
	<defs>
		<rect id="SVGID_1_" width="40" height="40"/>
	</defs>
	<clipPath id="SVGID_2_">
		<use xlink:href="#SVGID_1_"  overflow="visible"/>
	</clipPath>
	<path clip-path="url(#SVGID_2_)" fill="#DADADA" d="M40,20c0,11.046-8.954,20-20,20S0,31.046,0,20S8.954,0,20,0S40,8.954,40,20"/>
	<path clip-path="url(#SVGID_2_)" fill="#632A86" d="M28.766,8.527H11.234c-1.51,0-2.734,1.221-2.734,2.728v17.544
		c0,1.507,1.224,2.729,2.734,2.729h17.532c1.51,0,2.734-1.222,2.734-2.729V11.255C31.5,9.748,30.275,8.527,28.766,8.527
		 M25.031,12.121c0-0.397,0.322-0.719,0.719-0.719h2.156c0.396,0,0.719,0.322,0.719,0.719v2.156c0,0.397-0.322,0.719-0.719,0.719
		H25.75c-0.396,0-0.719-0.322-0.719-0.719V12.121z M20.026,15.641c2.443,0,4.423,1.976,4.423,4.413c0,2.438-1.979,4.413-4.423,4.413
		c-2.442,0-4.423-1.976-4.423-4.413C15.604,17.617,17.584,15.641,20.026,15.641 M29.344,28.652c0,0.396-0.322,0.719-0.719,0.719
		h-17.25c-0.396,0-0.718-0.322-0.718-0.719V17.871h2.875c-0.375,0.539-0.501,1.544-0.501,2.183c0,3.85,3.138,6.98,6.996,6.98
		c3.858,0,6.997-3.131,6.997-6.98c0-0.639-0.091-1.629-0.555-2.183h2.875V28.652z"/>
</g>
</svg>
