<?xml version="1.0" encoding="utf-8"?>
<!-- Generator: Adobe Illustrator 15.0.0, SVG Export Plug-In . SVG Version: 6.00 Build 0)  -->
<!DOCTYPE svg PUBLIC "-//W3C//DTD SVG 1.1//EN" "http://www.w3.org/Graphics/SVG/1.1/DTD/svg11.dtd">
<svg version="1.1" id="Layer_1" xmlns="http://www.w3.org/2000/svg" xmlns:xlink="http://www.w3.org/1999/xlink" x="0px" y="0px"
	 width="40px" height="40px" viewBox="0 0 40 40" enable-background="new 0 0 40 40" xml:space="preserve">
<g>
	<defs>
		<rect id="SVGID_1_" width="40" height="40"/>
	</defs>
	<clipPath id="SVGID_2_">
		<use xlink:href="#SVGID_1_"  overflow="visible"/>
	</clipPath>
	<path clip-path="url(#SVGID_2_)" fill="#DADADA" d="M40,20c0,11.046-8.954,20-20,20S0,31.046,0,20S8.954,0,20,0S40,8.954,40,20"/>
	<path clip-path="url(#SVGID_2_)" fill="#632A86" d="M20.001,8.899c-6.13,0-11.102,4.97-11.102,11.101
		c0,4.545,2.733,8.45,6.646,10.167c-0.032-0.773-0.006-1.706,0.191-2.549c0.215-0.9,1.429-6.048,1.429-6.048
		s-0.354-0.709-0.354-1.758c0-1.644,0.954-2.873,2.141-2.873c1.009,0,1.497,0.759,1.497,1.667c0,1.014-0.646,2.533-0.979,3.938
		c-0.278,1.179,0.59,2.139,1.752,2.139c2.103,0,3.519-2.701,3.519-5.902c0-2.432-1.638-4.253-4.618-4.253
		c-3.367,0-5.464,2.51-5.464,5.314c0,0.969,0.284,1.65,0.731,2.178c0.206,0.244,0.234,0.341,0.159,0.62
		c-0.052,0.202-0.175,0.695-0.226,0.89c-0.074,0.281-0.301,0.383-0.554,0.278c-1.553-0.633-2.274-2.331-2.274-4.241
		c0-3.153,2.659-6.936,7.933-6.936c4.238,0,7.028,3.069,7.028,6.36c0,4.355-2.421,7.608-5.991,7.608
		c-1.197,0-2.325-0.647-2.711-1.382c0,0-0.645,2.557-0.781,3.051c-0.235,0.854-0.695,1.711-1.117,2.377
		c0.999,0.295,2.053,0.455,3.146,0.455c6.13,0,11.1-4.97,11.1-11.101S26.131,8.899,20.001,8.899"/>
</g>
</svg>
