<?xml version="1.0" encoding="utf-8"?>
<!-- Generator: Adobe Illustrator 15.0.0, SVG Export Plug-In . SVG Version: 6.00 Build 0)  -->
<!DOCTYPE svg PUBLIC "-//W3C//DTD SVG 1.1//EN" "http://www.w3.org/Graphics/SVG/1.1/DTD/svg11.dtd">
<svg version="1.1" id="Layer_1" xmlns="http://www.w3.org/2000/svg" xmlns:xlink="http://www.w3.org/1999/xlink" x="0px" y="0px"
	 width="40px" height="40px" viewBox="0 0 40 40" enable-background="new 0 0 40 40" xml:space="preserve">
<g>
	<defs>
		<rect id="SVGID_1_" width="40" height="40"/>
	</defs>
	<clipPath id="SVGID_2_">
		<use xlink:href="#SVGID_1_"  overflow="visible"/>
	</clipPath>
	<path clip-path="url(#SVGID_2_)" fill="#DADADA" d="M40,20c0,11.046-8.954,20-20,20S0,31.046,0,20S8.954,0,20,0S40,8.954,40,20"/>
	<path clip-path="url(#SVGID_2_)" fill="#632A86" d="M30.244,11.299c-0.86,0.522-1.812,0.902-2.827,1.106
		c-0.809-0.887-1.966-1.44-3.247-1.44c-2.455,0-4.447,2.043-4.447,4.562c0,0.357,0.038,0.704,0.115,1.038
		c-3.698-0.19-6.975-2.004-9.171-4.767c-0.383,0.676-0.602,1.46-0.602,2.295c0,1.582,0.785,2.979,1.979,3.797
		c-0.728-0.022-1.415-0.229-2.016-0.569v0.056c0,2.211,1.534,4.056,3.57,4.473c-0.373,0.107-0.766,0.161-1.172,0.161
		c-0.286,0-0.566-0.028-0.837-0.081c0.566,1.812,2.208,3.131,4.155,3.166c-1.522,1.225-3.441,1.954-5.525,1.954
		c-0.359,0-0.714-0.021-1.061-0.062c1.969,1.292,4.308,2.047,6.819,2.047c8.184,0,12.658-6.95,12.658-12.979
		c0-0.198-0.004-0.396-0.011-0.591c0.869-0.643,1.624-1.446,2.218-2.361c-0.797,0.363-1.653,0.608-2.554,0.718
		C29.207,13.258,29.912,12.364,30.244,11.299"/>
</g>
</svg>
